<svg width="46" height="41" viewBox="0 0 46 41" fill="none" xmlns="http://www.w3.org/2000/svg">
<path d="M7.76407 7.70432C8.59143 6.85148 9.04185 6.33338 9.04185 5.95061C9.04185 5.72959 8.88851 5.50937 8.73598 5.35643C8.541 5.21385 8.3072 5.1345 8.06594 5.129C7.38872 5.129 6.39525 5.83289 5.20372 7.18621C1.89108 10.9707 0.200421 14.6391 0.269102 20.0468C0.337782 25.4544 1.66428 29.4159 4.58639 33.009C6.08698 34.9029 7.23698 35.875 8.05796 35.875C8.30974 35.8539 8.54622 35.7451 8.72639 35.5675C8.87893 35.3465 9.03067 35.1167 9.03067 34.8964C9.03067 34.4456 8.7224 33.9195 7.9765 33.2508C4.42667 29.8611 2.60025 25.4833 2.58747 20.0379C2.57549 15.1187 4.31247 11.0372 7.76407 7.70432ZM19.1243 33.6384C19.1706 33.668 19.197 33.6825 19.197 33.6825L19.1243 33.6384ZM26.6145 33.6825L26.6281 33.6721C26.6129 33.6825 26.6073 33.6865 26.6145 33.6825ZM26.8645 21.0157C25.5675 20.6834 30.8902 14.378 21.4299 6.82826C21.4299 6.82826 22.6709 10.7825 16.4122 19.6063C10.4809 27.9625 18.2858 33.1179 19.1275 33.6384C18.59 33.2901 15.3421 30.7796 19.8902 23.3372C20.7687 21.8717 21.929 20.5448 23.3641 17.5587C23.3641 17.5587 24.6347 19.3565 23.9711 23.2547C22.976 29.1484 28.2708 27.4596 28.3507 27.5421C30.1675 29.6866 26.9355 33.4286 26.6273 33.6721C27.0657 33.3798 36.0277 27.426 29.2627 18.6094C28.7843 19.0906 28.1606 21.348 26.8645 21.0157ZM40.7994 7.18221C39.6111 5.82889 38.6144 5.125 37.934 5.125C37.6927 5.13049 37.4589 5.20985 37.264 5.35242C37.1114 5.50537 36.9581 5.72559 36.9581 5.9466C36.9581 6.32938 37.4053 6.84828 38.2359 7.70031C41.6883 11.0324 43.4268 15.1147 43.4125 20.0371C43.3997 25.4825 41.5757 29.8571 38.0234 33.25C37.2775 33.9187 36.9709 34.4448 36.9693 34.8956C36.9693 35.1159 37.121 35.3457 37.2736 35.5667C37.4538 35.7443 37.6902 35.8533 37.942 35.875C38.763 35.875 39.913 34.9037 41.4136 33.009C44.3357 29.4175 45.6574 25.4512 45.7308 20.0468C45.8043 14.6423 44.1089 10.9707 40.7994 7.18221Z" fill="white"/>
</svg>
