<svg width="39" height="39" viewBox="0 0 39 39" fill="none" xmlns="http://www.w3.org/2000/svg">
<path d="M13.625 25.375L25.375 13.625" stroke="#ffffff" stroke-width="2" stroke-linecap="round" stroke-linejoin="round"/>
<path d="M14.6042 15.5833C15.1449 15.5833 15.5833 15.1449 15.5833 14.6042C15.5833 14.0634 15.1449 13.625 14.6042 13.625C14.0634 13.625 13.625 14.0634 13.625 14.6042C13.625 15.1449 14.0634 15.5833 14.6042 15.5833Z" fill="#ffffff" stroke="#ffffff" stroke-width="2" stroke-linecap="round" stroke-linejoin="round"/>
<path d="M24.3957 25.3748C24.9364 25.3748 25.3748 24.9364 25.3748 24.3957C25.3748 23.8549 24.9364 23.4165 24.3957 23.4165C23.8549 23.4165 23.4165 23.8549 23.4165 24.3957C23.4165 24.9364 23.8549 25.3748 24.3957 25.3748Z" fill="#ffffff" stroke="#ffffff" stroke-width="2" stroke-linecap="round" stroke-linejoin="round"/>
<path d="M5.79159 10.0999C5.79159 8.95728 6.24551 7.86144 7.05347 7.05347C7.86144 6.24551 8.95728 5.79159 10.0999 5.79159H12.0583C13.1959 5.79094 14.287 5.3404 15.0937 4.53826L16.4645 3.16743C16.8649 2.76479 17.3409 2.44528 17.8652 2.22724C18.3895 2.00921 18.9517 1.89697 19.5195 1.89697C20.0873 1.89697 20.6495 2.00921 21.1738 2.22724C21.6981 2.44528 22.1741 2.76479 22.5745 3.16743L23.9453 4.53826C24.752 5.3404 25.8432 5.79094 26.9808 5.79159H28.9391C30.0817 5.79159 31.1776 6.24551 31.9855 7.05347C32.7935 7.86144 33.2474 8.95728 33.2474 10.0999V12.0583C33.2481 13.1959 33.6986 14.287 34.5008 15.0937L35.8716 16.4645C36.2742 16.8649 36.5937 17.3409 36.8118 17.8652C37.0298 18.3895 37.142 18.9517 37.142 19.5195C37.142 20.0873 37.0298 20.6495 36.8118 21.1738C36.5937 21.6981 36.2742 22.1741 35.8716 22.5745L34.5008 23.9453C33.6986 24.752 33.2481 25.8432 33.2474 26.9808V28.9391C33.2474 30.0817 32.7935 31.1776 31.9855 31.9855C31.1776 32.7935 30.0817 33.2474 28.9391 33.2474H26.9808C25.8432 33.2481 24.752 33.6986 23.9453 34.5008L22.5745 35.8716C22.1741 36.2742 21.6981 36.5937 21.1738 36.8118C20.6495 37.0298 20.0873 37.142 19.5195 37.142C18.9517 37.142 18.3895 37.0298 17.8652 36.8118C17.3409 36.5937 16.8649 36.2742 16.4645 35.8716L15.0937 34.5008C14.287 33.6986 13.1959 33.2481 12.0583 33.2474H10.0999C8.95728 33.2474 7.86144 32.7935 7.05347 31.9855C6.24551 31.1776 5.79159 30.0817 5.79159 28.9391V26.9808C5.79094 25.8432 5.3404 24.752 4.53826 23.9453L3.16743 22.5745C2.76479 22.1741 2.44528 21.6981 2.22724 21.1738C2.00921 20.6495 1.89697 20.0873 1.89697 19.5195C1.89697 18.9517 2.00921 18.3895 2.22724 17.8652C2.44528 17.3409 2.76479 16.8649 3.16743 16.4645L4.53826 15.0937C5.3404 14.287 5.79094 13.1959 5.79159 12.0583V10.0999" stroke="#ffffff" stroke-width="2" stroke-linecap="round" stroke-linejoin="round"/>
</svg>
