<svg width="35" height="35" viewBox="0 0 35 35" fill="none" xmlns="http://www.w3.org/2000/svg">
<path d="M17.5 4.375C17.8572 4.37505 18.202 4.50619 18.4689 4.74354C18.7358 4.9809 18.9063 5.30797 18.9481 5.66271L18.9583 5.83333V29.1667C18.9579 29.5384 18.8156 29.8959 18.5604 30.1662C18.3053 30.4364 17.9565 30.5991 17.5855 30.6209C17.2144 30.6427 16.849 30.5219 16.564 30.2834C16.279 30.0448 16.0958 29.7064 16.0519 29.3373L16.0417 29.1667V5.83333C16.0417 5.44656 16.1953 5.07563 16.4688 4.80214C16.7423 4.52865 17.1132 4.375 17.5 4.375ZM11.6667 8.75C12.0239 8.75005 12.3686 8.88119 12.6355 9.11854C12.9025 9.3559 13.073 9.68297 13.1148 10.0377L13.125 10.2083V24.7917C13.1246 25.1634 12.9823 25.5209 12.7271 25.7912C12.4719 26.0614 12.1232 26.2241 11.7521 26.2459C11.3811 26.2677 11.0157 26.1469 10.7307 25.9084C10.4456 25.6698 10.2624 25.3314 10.2185 24.9623L10.2083 24.7917V10.2083C10.2083 9.82156 10.362 9.45063 10.6355 9.17714C10.909 8.90365 11.2799 8.75 11.6667 8.75ZM23.3333 8.75C23.6905 8.75005 24.0353 8.88119 24.3022 9.11854C24.5691 9.3559 24.7397 9.68297 24.7815 10.0377L24.7917 10.2083V24.7917C24.7913 25.1634 24.6489 25.5209 24.3938 25.7912C24.1386 26.0614 23.7899 26.2241 23.4188 26.2459C23.0477 26.2677 22.6824 26.1469 22.3973 25.9084C22.1123 25.6698 21.9291 25.3314 21.8852 24.9623L21.875 24.7917V10.2083C21.875 9.82156 22.0286 9.45063 22.3021 9.17714C22.5756 8.90365 22.9466 8.75 23.3333 8.75ZM5.83333 13.125C6.19053 13.125 6.53528 13.2562 6.80221 13.4935C7.06914 13.7309 7.23967 14.058 7.28146 14.4127L7.29167 14.5833V20.4167C7.29125 20.7884 7.14893 21.1459 6.89376 21.4162C6.6386 21.6864 6.28986 21.8491 5.9188 21.8709C5.54774 21.8927 5.18236 21.7719 4.89733 21.5334C4.61229 21.2948 4.42911 20.9564 4.38521 20.5873L4.375 20.4167V14.5833C4.375 14.1966 4.52865 13.8256 4.80214 13.5521C5.07563 13.2786 5.44656 13.125 5.83333 13.125ZM29.1667 13.125C29.5239 13.125 29.8686 13.2562 30.1355 13.4935C30.4025 13.7309 30.573 14.058 30.6148 14.4127L30.625 14.5833V20.4167C30.6246 20.7884 30.4823 21.1459 30.2271 21.4162C29.9719 21.6864 29.6232 21.8491 29.2521 21.8709C28.8811 21.8927 28.5157 21.7719 28.2307 21.5334C27.9456 21.2948 27.7624 20.9564 27.7185 20.5873L27.7083 20.4167V14.5833C27.7083 14.1966 27.862 13.8256 28.1355 13.5521C28.409 13.2786 28.7799 13.125 29.1667 13.125Z" fill="white"/>
</svg>
