<svg width="38" height="38" viewBox="0 0 38 38" fill="none" xmlns="http://www.w3.org/2000/svg">
<path d="M26.1251 9.5H11.8751L7.91675 14.1257V30.1562L11.8751 34.8333H26.1251L30.0834 30.1562V14.1249L26.1251 9.5Z" stroke="white" stroke-width="4" stroke-linecap="round" stroke-linejoin="round"/>
<path d="M15.0417 15.8335H22.9584" stroke="white" stroke-width="4" stroke-linecap="round" stroke-linejoin="round"/>
<path d="M26.125 9.50008V5.54175C26.125 4.91186 25.8748 4.30777 25.4294 3.86237C24.984 3.41697 24.3799 3.16675 23.75 3.16675H14.25C13.6201 3.16675 13.016 3.41697 12.5706 3.86237C12.1252 4.30777 11.875 4.91186 11.875 5.54175V9.50008" stroke="white" stroke-width="4" stroke-linecap="round" stroke-linejoin="round"/>
<path d="M19.0001 29.2917C21.1862 29.2917 22.9584 27.5195 22.9584 25.3333C22.9584 23.1472 21.1862 21.375 19.0001 21.375C16.814 21.375 15.0417 23.1472 15.0417 25.3333C15.0417 27.5195 16.814 29.2917 19.0001 29.2917Z" stroke="white" stroke-width="4" stroke-linecap="round" stroke-linejoin="round"/>
</svg>
