<svg width="39" height="39" viewBox="0 0 39 39" fill="none" xmlns="http://www.w3.org/2000/svg">
<path d="M19.5 21.125C22.1924 21.125 24.375 18.9424 24.375 16.25C24.375 13.5576 22.1924 11.375 19.5 11.375C16.8076 11.375 14.625 13.5576 14.625 16.25C14.625 18.9424 16.8076 21.125 19.5 21.125Z" stroke="white" stroke-width="2" stroke-linecap="round" stroke-linejoin="round"/>
<path d="M19.5 3.25C16.0522 3.25 12.7456 4.61964 10.3076 7.05761C7.86964 9.49558 6.5 12.8022 6.5 16.25C6.5 19.3245 7.15325 21.3362 8.9375 23.5625L19.5 35.75L30.0625 23.5625C31.8468 21.3362 32.5 19.3245 32.5 16.25C32.5 12.8022 31.1304 9.49558 28.6924 7.05761C26.2544 4.61964 22.9478 3.25 19.5 3.25V3.25Z" stroke="white" stroke-width="2" stroke-linecap="round" stroke-linejoin="round"/>
</svg>
