<svg width="36" height="36" viewBox="0 0 36 36" fill="none" xmlns="http://www.w3.org/2000/svg">
<path d="M9.0001 6.2999C9.0001 6.06121 9.09492 5.83229 9.2637 5.66351C9.43248 5.49472 9.6614 5.3999 9.9001 5.3999H15.3001C15.5388 5.3999 15.7677 5.49472 15.9365 5.66351C16.1053 5.83229 16.2001 6.06121 16.2001 6.2999V11.6999C16.2001 11.9386 16.1053 12.1675 15.9365 12.3363C15.7677 12.5051 15.5388 12.5999 15.3001 12.5999H9.9001C9.6614 12.5999 9.43248 12.5051 9.2637 12.3363C9.09492 12.1675 9.0001 11.9386 9.0001 11.6999V6.2999ZM20.7001 5.3999C20.4614 5.3999 20.2325 5.49472 20.0637 5.66351C19.8949 5.83229 19.8001 6.06121 19.8001 6.2999V11.6999C19.8001 11.9386 19.8949 12.1675 20.0637 12.3363C20.2325 12.5051 20.4614 12.5999 20.7001 12.5999H26.1001C26.3388 12.5999 26.5677 12.5051 26.7365 12.3363C26.9053 12.1675 27.0001 11.9386 27.0001 11.6999V6.2999C27.0001 6.06121 26.9053 5.83229 26.7365 5.66351C26.5677 5.49472 26.3388 5.3999 26.1001 5.3999H20.7001ZM21.6001 10.7999V7.1999H25.2001V10.7999H21.6001ZM3.6001 21.5999C3.6001 19.6903 4.35867 17.859 5.70893 16.5087C7.05919 15.1585 8.89054 14.3999 10.8001 14.3999H25.2001C27.7021 14.3999 29.9035 15.6743 31.1941 17.6093C29.5051 16.5928 27.5501 16.1062 25.5817 16.2125C25.4547 16.2039 25.3274 16.1997 25.2001 16.1999H10.8001C9.36793 16.1999 7.99442 16.7688 6.98172 17.7815C5.96902 18.7942 5.4001 20.1677 5.4001 21.5999C5.4001 23.0321 5.96902 24.4056 6.98172 25.4183C7.99442 26.431 9.36793 26.9999 10.8001 26.9999H16.2397C16.2955 27.6173 16.4089 28.2203 16.5727 28.7999H10.8001C8.89054 28.7999 7.05919 28.0413 5.70893 26.6911C4.35867 25.3408 3.6001 23.5095 3.6001 21.5999ZM18.0001 19.7999C18.1441 19.7999 18.2881 19.8179 18.4231 19.8503C17.6861 20.7527 17.1145 21.7783 16.7347 22.8797C16.481 22.6288 16.3076 22.3081 16.2365 21.9585C16.1654 21.6088 16.1999 21.2459 16.3355 20.9158C16.4711 20.5858 16.7018 20.3035 16.9981 20.1048C17.2945 19.9061 17.6433 19.8 18.0001 19.7999ZM10.8001 23.3999C11.2775 23.3999 11.7353 23.2103 12.0729 22.8727C12.4105 22.5351 12.6001 22.0773 12.6001 21.5999C12.6001 21.1225 12.4105 20.6647 12.0729 20.3271C11.7353 19.9895 11.2775 19.7999 10.8001 19.7999C10.3227 19.7999 9.86487 19.9895 9.52731 20.3271C9.18974 20.6647 9.0001 21.1225 9.0001 21.5999C9.0001 22.0773 9.18974 22.5351 9.52731 22.8727C9.86487 23.2103 10.3227 23.3999 10.8001 23.3999ZM34.2001 26.0999C34.2001 28.2482 33.3467 30.3084 31.8277 31.8275C30.3086 33.3465 28.2484 34.1999 26.1001 34.1999C23.9518 34.1999 21.8916 33.3465 20.3725 31.8275C18.8535 30.3084 18.0001 28.2482 18.0001 26.0999C18.0001 23.9516 18.8535 21.8914 20.3725 20.3723C21.8916 18.8533 23.9518 17.9999 26.1001 17.9999C28.2484 17.9999 30.3086 18.8533 31.8277 20.3723C33.3467 21.8914 34.2001 23.9516 34.2001 26.0999ZM29.0629 22.7627L24.3001 27.5273L23.1373 26.3627C22.9683 26.1937 22.7391 26.0988 22.5001 26.0988C22.2611 26.0988 22.0319 26.1937 21.8629 26.3627C21.6939 26.5317 21.599 26.7609 21.599 26.9999C21.599 27.2389 21.6939 27.4681 21.8629 27.6371L23.6629 29.4371C23.7465 29.5209 23.8458 29.5874 23.9552 29.6328C24.0645 29.6782 24.1817 29.7015 24.3001 29.7015C24.4185 29.7015 24.5357 29.6782 24.645 29.6328C24.7544 29.5874 24.8537 29.5209 24.9373 29.4371L30.3373 24.0371C30.5063 23.8681 30.6012 23.6389 30.6012 23.3999C30.6012 23.1609 30.5063 22.9317 30.3373 22.7627C30.1683 22.5937 29.9391 22.4988 29.7001 22.4988C29.4611 22.4988 29.2319 22.5937 29.0629 22.7627Z" fill="#ffffff"/>
</svg>
