<svg width="36" height="36" viewBox="0 0 36 36" fill="none" xmlns="http://www.w3.org/2000/svg">
<path fill-rule="evenodd" clip-rule="evenodd" d="M21 33H15C13.8 33 12.597 31.3155 11.589 28.911L7.5 33L6 31.5V25.5L9.5745 21.9255C9.21 19.9875 9 18.0855 9 16.5C9 10.5 13.5 3 18 3C22.5 3 27 10.5 27 16.5C27 18.087 26.79 19.9875 26.4255 21.9255L30 25.5V31.5L28.5 33L24.411 28.911C23.403 31.3155 22.2015 33 21 33ZM18 30H15.5775C15.482 29.88 15.3924 29.7553 15.309 29.6265C14.7885 28.8285 14.229 27.579 13.7205 26.052C12.6825 22.935 12 19.1325 12 16.5C12 11.703 15.666 6 18 6C20.334 6 24 11.703 24 16.5C24 19.1325 23.3175 22.9365 22.2795 26.052C21.7695 27.579 21.2115 28.827 20.6895 29.6265C20.6066 29.7553 20.5175 29.8799 20.4225 30H18ZM18 18C18.7956 18 19.5587 17.6839 20.1213 17.1213C20.6839 16.5587 21 15.7956 21 15C21 14.2044 20.6839 13.4413 20.1213 12.8787C19.5587 12.3161 18.7956 12 18 12C17.2044 12 16.4413 12.3161 15.8787 12.8787C15.3161 13.4413 15 14.2044 15 15C15 15.7956 15.3161 16.5587 15.8787 17.1213C16.4413 17.6839 17.2044 18 18 18Z" fill="#ffffff"/>
</svg>
