<svg width="38" height="38" viewBox="0 0 38 38" fill="none" xmlns="http://www.w3.org/2000/svg">
<g clip-path="url(#clip0_18_55)">
<path d="M16.6927 37.8576C13.3036 37.4182 9.81471 35.9647 7.27346 33.9305C1.55209 29.3658 -1.04497 22.1541 0.4394 14.9923C1.0759 11.9 2.73365 8.64627 4.85571 6.30214C6.41893 4.54286 8.30408 3.09867 10.4096 2.04733C13.205 0.630641 15.8769 -0.00585938 19.0309 -0.00585938C21.2943 -0.00585938 23.1135 0.291016 25.1976 1.00233C27.9355 1.94146 30.4228 3.49326 32.4701 5.53945C34.5173 7.58564 36.0703 10.0722 37.0108 12.8096C38.1247 16.0753 38.3278 19.5511 37.6165 22.996C37.0476 25.7178 35.5811 28.7791 33.7761 30.9926C33.0339 31.9082 31.3263 33.541 30.4297 34.2025C27.7475 36.1945 24.593 37.4541 21.2765 37.8576C20.2991 37.9811 17.6391 37.9751 16.6939 37.8576H16.6927ZM21.8702 36.2687C26.4994 35.4928 30.6309 32.9098 33.3557 29.0879C36.5655 24.579 37.4253 18.5298 35.6131 13.255C35.1868 12.0176 34.1288 9.95252 33.3557 8.86358C32.496 7.6452 30.368 5.51127 29.1436 4.65152C27.9561 3.81077 25.9338 2.78952 24.554 2.33827C22.0632 1.51074 19.4183 1.25345 16.8147 1.5854C14.2111 1.91735 11.7154 2.83005 9.5119 4.25608C7.43873 5.61793 5.66656 7.3901 4.30471 9.46327C2.87905 11.6656 1.96652 14.1601 1.63457 16.7625C1.30262 19.3648 1.55973 22.0085 2.3869 24.4982C2.84409 25.8769 3.86534 27.9063 4.70015 29.0938C5.56584 30.3122 7.69384 32.4461 8.91221 33.3059C10.0071 34.073 12.0662 35.1299 13.3036 35.5633C16.0577 36.499 19.0001 36.7413 21.8702 36.2687ZM15.2891 29.8978C14.4012 29.7639 13.5495 29.4525 12.7846 28.9822C12.0983 28.5428 6.91484 23.4651 6.6619 22.9889C6.37096 22.445 6.87803 21.4546 7.6024 21.1518L7.94203 21.0093L6.89703 19.9453C6.32228 19.3575 5.77721 18.7329 5.69053 18.5595C5.48628 18.1641 5.48034 17.3162 5.67153 16.9386C5.75227 16.7842 5.94346 16.5491 6.0919 16.4185C6.34603 16.2083 6.36977 16.1335 6.34602 15.6015C6.31515 15.1312 6.3579 14.946 6.56215 14.5933C6.85903 14.0862 7.47178 13.7454 8.07146 13.7395C8.40515 13.7395 8.49184 13.6967 8.63434 13.4485C9.00602 12.799 10.0688 12.5638 10.8799 12.9605L11.3193 13.1706L11.5354 12.9605C11.8323 12.6885 12.426 12.4475 12.8155 12.4475C13.5945 12.4475 14.6953 13.344 14.6953 13.9746C14.6953 14.7286 14.009 14.8593 13.3285 14.2346C12.8773 13.8143 12.6481 13.7703 12.4628 14.0672C12.3702 14.2097 12.5923 14.4757 13.9223 15.8176C15.2523 17.1535 15.4933 17.4385 15.4933 17.6915C15.4828 17.8853 15.4003 18.0683 15.2619 18.2045C15.1235 18.3407 14.9392 18.4203 14.7452 18.4277C14.5041 18.4277 14.1087 18.081 12.2835 16.2629C10.4215 14.4068 10.0819 14.11 9.93346 14.2038C9.5309 14.4579 9.66746 14.6431 11.8441 16.8258C13.0257 18.0133 13.9971 19.0642 13.9971 19.164C13.9971 19.3682 13.8118 19.7458 13.6575 19.8444C13.5308 19.9 13.3931 19.9256 13.2549 19.9192C13.0008 19.9251 12.6113 19.5725 10.5403 17.5074C8.46215 15.4411 8.09046 15.1075 7.94203 15.2001C7.53352 15.4601 7.67009 15.6395 10.0392 18.0204C11.3323 19.3136 12.4141 20.4702 12.445 20.5937C12.5127 20.817 12.3643 21.2065 12.1671 21.3418C12.0363 21.3975 11.8947 21.423 11.7527 21.4166C11.4986 21.4166 11.178 21.1388 9.4644 19.4252C7.81259 17.7734 7.42903 17.4338 7.21884 17.4528C6.62509 17.5205 6.83527 17.7865 9.90259 20.8609C12.5626 23.5268 12.9022 23.9045 12.9022 24.1823C12.9049 24.2843 12.8819 24.3854 12.8355 24.4763C12.789 24.5671 12.7205 24.6449 12.6362 24.7025C12.16 25.0801 11.9748 24.9934 10.7742 23.8308C10.1615 23.243 9.5309 22.6742 9.36346 22.5685C9.06065 22.3833 8.29352 22.3025 8.15102 22.451C8.10115 22.4937 9.23284 23.6883 10.6626 25.1038C13.0435 27.4598 13.3155 27.7021 14.0149 28.0358C14.6592 28.3566 15.3689 28.5246 16.0887 28.5267C16.8085 28.5287 17.5191 28.3648 18.1652 28.0476C20.1626 27.0953 21.2705 24.782 20.7255 22.6849C20.4535 21.6399 20.1127 21.1388 18.74 19.7221C17.157 18.1011 16.7913 17.6558 16.4018 16.8768C15.9683 16.0052 15.7831 15.1573 15.7831 14.0993C15.7831 12.9545 15.9007 12.4356 16.4077 11.3656C16.8898 10.3456 17.898 9.27564 18.8943 8.72464C20.849 7.6357 23.4223 7.72833 25.289 8.94789C25.6607 9.18895 27.0026 10.4513 28.6722 12.1268C31.1529 14.6135 31.4367 14.9353 31.4367 15.2191C31.4367 15.8936 30.8857 16.6417 30.2741 16.7961C30.045 16.8578 30.0889 16.9196 31.128 17.9776C31.7336 18.5904 32.2965 19.2518 32.3831 19.4561C32.6741 20.1555 32.5435 20.8348 32.0115 21.3917C31.7395 21.6767 31.7027 21.7753 31.6956 22.3441C31.6896 22.8452 31.6338 23.0554 31.4355 23.3404C31.2789 23.5722 31.0692 23.7633 30.8238 23.8978C30.5784 24.0323 30.3045 24.1062 30.0248 24.1135C29.6412 24.1135 29.5676 24.1503 29.3752 24.4412C28.9418 25.1098 27.816 25.3437 27.0869 24.9115L26.7223 24.6953L26.4623 24.9495C25.8875 25.5005 24.9589 25.5741 24.2547 25.1228C23.6859 24.7642 23.2655 24.2631 23.2655 23.9472C23.2655 23.6693 23.6681 23.211 23.9151 23.211C24.1502 23.211 24.4661 23.3962 24.8247 23.7311C25.1833 24.0707 25.4933 24.0707 25.542 23.7251C25.5669 23.5399 25.27 23.1872 24.0695 21.9807C22.8071 20.7065 22.5661 20.4156 22.5661 20.1686C22.5633 20.0307 22.5887 19.8937 22.6409 19.766C22.7775 19.5618 23.161 19.4193 23.395 19.481C23.5185 19.5119 24.5635 20.4773 25.7082 21.6209C26.8589 22.7716 27.8671 23.7109 27.9597 23.7109C28.2138 23.7109 28.3801 23.4568 28.2625 23.2406C28.2067 23.1421 27.2353 22.1458 26.1096 21.02C24.3473 19.2637 24.0623 18.936 24.0623 18.6759C24.0566 18.5359 24.0821 18.3963 24.1371 18.2674C24.2428 18.113 24.6133 17.9278 24.8235 17.9278C24.9161 17.9278 26.0787 19.0096 27.4087 20.3336C29.8455 22.7585 30.0248 22.8939 30.2789 22.4925C30.3715 22.3441 30.0378 21.9665 27.9716 19.8943C25.8376 17.7544 25.5538 17.4326 25.5538 17.1547C25.5538 16.9635 25.6405 16.7652 25.7771 16.6417C26.2283 16.2154 26.3649 16.3021 28.5606 18.4847C30.6387 20.5569 30.824 20.6923 31.0781 20.2968C31.1707 20.1484 30.7503 19.6912 28.1711 17.1048C25.3626 14.2845 25.1596 14.0553 25.1596 13.7276C25.1596 13.2324 25.4446 12.9973 25.9944 13.0353C26.093 13.0412 26.6867 13.5423 27.2995 14.142C27.9181 14.7417 28.5855 15.3046 28.7838 15.3913C29.1733 15.5516 29.6246 15.5765 29.817 15.453C30.0022 15.3355 24.8686 10.2826 24.2013 9.92995C23.6291 9.62111 22.9997 9.43264 22.3519 9.37615C21.7041 9.31965 21.0516 9.39632 20.4346 9.60145C19.8175 9.80657 19.249 10.1358 18.7639 10.5689C18.2789 11.002 17.8876 11.5297 17.6142 12.1197C17.2924 12.8061 17.2496 13.0103 17.2057 13.895C17.1689 14.7298 17.1998 14.9899 17.3791 15.5219C17.7009 16.4683 17.9788 16.8578 19.4204 18.3303C20.9796 19.9263 21.2765 20.2909 21.6719 21.1447C22.7858 23.5197 22.3155 26.2664 20.4785 28.0963C19.0808 29.5 17.176 30.1555 15.2891 29.8966V29.8978Z" fill="#ffffff"/>
</g>
<defs>
<clipPath id="clip0_18_55">
<rect width="38" height="38" fill="#ffffff"/>
</clipPath>
</defs>
</svg>
